<?xml version="1.0" standalone="no"?>
<!DOCTYPE svg PUBLIC "-//W3C//DTD SVG 20010904//EN"
 "http://www.w3.org/TR/2001/REC-SVG-20010904/DTD/svg10.dtd">
<svg version="1.0" xmlns="http://www.w3.org/2000/svg"
 width="128.000000pt" height="128.000000pt" viewBox="0 0 128.000000 128.000000"
 preserveAspectRatio="xMidYMid meet">

<g transform="translate(0.000000,128.000000) scale(0.100000,-0.100000)"
fill="#000000" stroke="none">
<path d="M950 825 l0 -65 45 0 45 0 0 65 0 65 -45 0 -45 0 0 -65z"/>
<path d="M856 744 c-3 -9 -6 -38 -6 -65 l0 -49 -175 0 -175 0 0 40 c0 28 -5
43 -16 47 -21 8 -34 -13 -34 -54 l0 -33 -175 0 c-110 0 -175 -4 -175 -10 0 -5
4 -10 10 -10 5 0 13 -15 18 -32 l8 -33 84 -8 c45 -4 272 -6 504 -5 l420 3 9
38 c5 20 13 37 18 37 17 0 9 18 -11 23 -17 4 -20 14 -20 61 l0 56 -40 0 -39 0
-3 -57 -3 -58 -55 0 -55 0 -3 63 -3 62 -38 0 c-26 0 -41 -5 -45 -16z"/>
<path d="M210 705 c0 -9 5 -15 11 -13 6 2 11 8 11 13 0 5 -5 11 -11 13 -6 2
-11 -4 -11 -13z"/>
<path d="M276 713 c-11 -11 -6 -23 9 -23 8 0 15 4 15 9 0 13 -16 22 -24 14z"/>
<path d="M336 713 c-11 -11 -6 -23 9 -23 8 0 15 4 15 9 0 13 -16 22 -24 14z"/>
<path d="M396 713 c-11 -11 -6 -23 9 -23 8 0 15 4 15 9 0 13 -16 22 -24 14z"/>
<path d="M200 466 c0 -12 72 -47 92 -44 13 1 42 -4 65 -11 37 -12 48 -12 80 1
32 12 43 12 68 2 40 -17 74 -17 108 0 23 13 31 13 55 0 34 -18 64 -18 106 0
27 11 36 11 57 0 31 -17 77 -17 109 0 17 10 30 11 42 5 13 -7 28 -3 58 16 22
14 40 27 40 30 0 3 -198 5 -440 5 -242 0 -440 -2 -440 -4z"/>
</g>
</svg>
